<svg xmlns="http://www.w3.org/2000/svg" xmlns:xlink="http://www.w3.org/1999/xlink" width="1095" height="725" x="0" y="0" preserveAspectRatio="none" viewBox="0 -40 1095 805" xml:space="preserve"><defs><linearGradient id="b49" x1=".5" x2=".5" y1="596.5" y2="662.242" gradientUnits="userSpaceOnUse" spreadMethod="pad"><stop offset="0" stop-color="#e4e6ea"/><stop offset=".5" stop-color="#c8ced4"/><stop offset="1" stop-color="#969a9f"/></linearGradient><linearGradient id="b75" x1=".5" x2=".5" y1="263.5" y2="660.941" gradientUnits="userSpaceOnUse" spreadMethod="pad"><stop offset="0" stop-color="#e4e6ea"/><stop offset=".5" stop-color="#c8ced4"/><stop offset="1" stop-color="#969a9f"/></linearGradient><linearGradient id="b101" x1=".5" x2=".5" y1="170.5" y2="660.578" gradientUnits="userSpaceOnUse" spreadMethod="pad"><stop offset="0" stop-color="#e4e6ea"/><stop offset=".5" stop-color="#c8ced4"/><stop offset="1" stop-color="#969a9f"/></linearGradient><linearGradient id="b127" x1=".5" x2=".5" y1="-1.5" y2="659.906" gradientUnits="userSpaceOnUse" spreadMethod="pad"><stop offset="0" stop-color="#e4e6ea"/><stop offset=".5" stop-color="#c8ced4"/><stop offset="1" stop-color="#969a9f"/></linearGradient><linearGradient id="b152" x1=".5" x2=".5" y1="389.5" y2="661.434" gradientUnits="userSpaceOnUse" spreadMethod="pad"><stop offset="0" stop-color="#e4e6ea"/><stop offset=".5" stop-color="#c8ced4"/><stop offset="1" stop-color="#969a9f"/></linearGradient><linearGradient id="b178" x1=".5" x2=".5" y1="-1.5" y2="659.906" gradientUnits="userSpaceOnUse" spreadMethod="pad"><stop offset="0" stop-color="#e4e6ea"/><stop offset=".5" stop-color="#c8ced4"/><stop offset="1" stop-color="#969a9f"/></linearGradient><linearGradient id="b203" x1=".5" x2=".5" y1="409.5" y2="661.512" gradientUnits="userSpaceOnUse" spreadMethod="pad"><stop offset="0" stop-color="#e4e6ea"/><stop offset=".5" stop-color="#c8ced4"/><stop offset="1" stop-color="#969a9f"/></linearGradient><linearGradient id="b229" x1=".5" x2=".5" y1="125.5" y2="660.402" gradientUnits="userSpaceOnUse" spreadMethod="pad"><stop offset="0" stop-color="#e4e6ea"/><stop offset=".5" stop-color="#c8ced4"/><stop offset="1" stop-color="#969a9f"/></linearGradient></defs><g fill="none" fill-rule="evenodd" stroke-linecap="square" font-family="Arial" font-size="11"><rect id="b1" width="1095" height="805" x="0" y="0"/><use xlink:href="#b1"/><rect id="b2" width="981" height="563" x="108" y="88"/><use xlink:href="#b2"/><path id="b3" stroke-linecap="butt" d="M97.5,97.5 L97.5,661.5 L107.5,651.5 L107.5,87.5 L97.5,97.5 Z"/><use xlink:href="#b3"/><path id="b4" stroke-linecap="butt" d="M1079.5,661.5 L97.5,661.5 L107.5,651.5 L1089.5,651.5 L1079.5,661.5 Z"/><use xlink:href="#b4"/><line id="b5" x1="107.5" x2="1089.5" y1="651.5" y2="651.5"/><use stroke="#bababa" xlink:href="#b5"/><line id="b6" x1="97.5" x2="107.5" y1="661.5" y2="651.5"/><use stroke="#bababa" xlink:href="#b6"/><line id="b7" x1="107.5" x2="1089.5" y1="595.5" y2="595.5"/><use stroke="#bababa" xlink:href="#b7"/><line id="b8" x1="97.5" x2="107.5" y1="605.5" y2="595.5"/><use stroke="#bababa" xlink:href="#b8"/><line id="b9" x1="107.5" x2="1089.5" y1="538.5" y2="538.5"/><use stroke="#bababa" xlink:href="#b9"/><line id="b10" x1="97.5" x2="107.5" y1="548.5" y2="538.5"/><use stroke="#bababa" xlink:href="#b10"/><line id="b11" x1="107.5" x2="1089.5" y1="482.5" y2="482.5"/><use stroke="#bababa" xlink:href="#b11"/><line id="b12" x1="97.5" x2="107.5" y1="492.5" y2="482.5"/><use stroke="#bababa" xlink:href="#b12"/><line id="b13" x1="107.5" x2="1089.5" y1="425.5" y2="425.5"/><use stroke="#bababa" xlink:href="#b13"/><line id="b14" x1="97.5" x2="107.5" y1="435.5" y2="425.5"/><use stroke="#bababa" xlink:href="#b14"/><line id="b15" x1="107.5" x2="1089.5" y1="369.5" y2="369.5"/><use stroke="#bababa" xlink:href="#b15"/><line id="b16" x1="97.5" x2="107.5" y1="379.5" y2="369.5"/><use stroke="#bababa" xlink:href="#b16"/><line id="b17" x1="107.5" x2="1089.5" y1="313.5" y2="313.5"/><use stroke="#bababa" xlink:href="#b17"/><line id="b18" x1="97.5" x2="107.5" y1="323.5" y2="313.5"/><use stroke="#bababa" xlink:href="#b18"/><line id="b19" x1="107.5" x2="1089.5" y1="256.5" y2="256.5"/><use stroke="#bababa" xlink:href="#b19"/><line id="b20" x1="97.5" x2="107.5" y1="266.5" y2="256.5"/><use stroke="#bababa" xlink:href="#b20"/><line id="b21" x1="107.5" x2="1089.5" y1="200.5" y2="200.5"/><use stroke="#bababa" xlink:href="#b21"/><line id="b22" x1="97.5" x2="107.5" y1="210.5" y2="200.5"/><use stroke="#bababa" xlink:href="#b22"/><line id="b23" x1="107.5" x2="1089.5" y1="143.5" y2="143.5"/><use stroke="#bababa" xlink:href="#b23"/><line id="b24" x1="97.5" x2="107.5" y1="153.5" y2="143.5"/><use stroke="#bababa" xlink:href="#b24"/><line id="b25" x1="107.5" x2="1089.5" y1="87.5" y2="87.5"/><use stroke="#bababa" xlink:href="#b25"/><line id="b26" x1="97.5" x2="107.5" y1="97.5" y2="87.5"/><use stroke="#bababa" xlink:href="#b26"/><line id="b27" x1="107.5" x2="107.5" y1="651.5" y2="87.5"/><use stroke="#bababa" xlink:href="#b27"/><line id="b28" x1="97.5" x2="107.5" y1="661.5" y2="651.5"/><use stroke="#bababa" xlink:href="#b28"/><line id="b29" x1="230.5" x2="230.5" y1="651.5" y2="87.5"/><use stroke="#bababa" xlink:href="#b29"/><line id="b30" x1="220.5" x2="230.5" y1="661.5" y2="651.5"/><use stroke="#bababa" xlink:href="#b30"/><line id="b31" x1="353.5" x2="353.5" y1="651.5" y2="87.5"/><use stroke="#bababa" xlink:href="#b31"/><line id="b32" x1="343.5" x2="353.5" y1="661.5" y2="651.5"/><use stroke="#bababa" xlink:href="#b32"/><line id="b33" x1="475.5" x2="475.5" y1="651.5" y2="87.5"/><use stroke="#bababa" xlink:href="#b33"/><line id="b34" x1="465.5" x2="475.5" y1="661.5" y2="651.5"/><use stroke="#bababa" xlink:href="#b34"/><line id="b35" x1="598.5" x2="598.5" y1="651.5" y2="87.5"/><use stroke="#bababa" xlink:href="#b35"/><line id="b36" x1="588.5" x2="598.5" y1="661.5" y2="651.5"/><use stroke="#bababa" xlink:href="#b36"/><line id="b37" x1="721.5" x2="721.5" y1="651.5" y2="87.5"/><use stroke="#bababa" xlink:href="#b37"/><line id="b38" x1="711.5" x2="721.5" y1="661.5" y2="651.5"/><use stroke="#bababa" xlink:href="#b38"/><line id="b39" x1="844.5" x2="844.5" y1="651.5" y2="87.5"/><use stroke="#bababa" xlink:href="#b39"/><line id="b40" x1="834.5" x2="844.5" y1="661.5" y2="651.5"/><use stroke="#bababa" xlink:href="#b40"/><line id="b41" x1="966.5" x2="966.5" y1="651.5" y2="87.5"/><use stroke="#bababa" xlink:href="#b41"/><line id="b42" x1="956.5" x2="966.5" y1="661.5" y2="651.5"/><use stroke="#bababa" xlink:href="#b42"/><line id="b43" x1="1089.5" x2="1089.5" y1="651.5" y2="87.5"/><use stroke="#bababa" xlink:href="#b43"/><line id="b44" x1="1079.5" x2="1089.5" y1="661.5" y2="651.5"/><use stroke="#bababa" xlink:href="#b44"/><rect id="b45" width="982" height="564" x="107.5" y="87.5"/><use stroke="#999" xlink:href="#b45"/><path id="b46" stroke-linecap="butt" d="M97.5,97.5 L97.5,661.5 L107.5,651.5 L107.5,87.5 L97.5,97.5 Z"/><use stroke="#999" xlink:href="#b46"/><path id="b47" stroke-linecap="butt" d="M1079.5,661.5 L97.5,661.5 L107.5,651.5 L1089.5,651.5 L1079.5,661.5 Z"/><use stroke="#999" xlink:href="#b47"/><path id="b48" stroke-linecap="butt" d="M206.5,660.5 L206.5,597.5 L216.5,587.5 L216.5,650.5 L206.5,660.5 Z"/><use fill="#64676a" stroke="#64676a" xlink:href="#b48"/><rect id="b50" width="96" height="64" x="110" y="597"/><use fill="url(#b49)" xlink:href="#b50"/><path id="b52" stroke-linecap="butt" d="M110.5,660.5 L110.5,597.5"/><use stroke="#999" stroke-opacity=".278" xlink:href="#b52"/><path id="b53" stroke-linecap="butt" d="M110.5,597.5 L205.5,597.5"/><use xlink:href="#b53"/><path id="b54" stroke-linecap="butt" d="M205.5,597.5 L205.5,660.5"/><use stroke="#999" stroke-opacity=".278" xlink:href="#b54"/><path id="b55" stroke-linecap="butt" d="M205.5,660.5 L110.5,660.5"/><use stroke="#999" stroke-opacity=".278" xlink:href="#b55"/><path id="b57" stroke-linecap="butt" d="M111.5,659.5 L111.5,598.5"/><use stroke="#999" stroke-opacity=".153" xlink:href="#b57"/><path id="b58" stroke-linecap="butt" d="M111.5,598.5 L204.5,598.5"/><use xlink:href="#b58"/><path id="b59" stroke-linecap="butt" d="M204.5,598.5 L204.5,659.5"/><use stroke="#999" stroke-opacity=".153" xlink:href="#b59"/><path id="b60" stroke-linecap="butt" d="M204.5,659.5 L111.5,659.5"/><use stroke="#999" stroke-opacity=".153" xlink:href="#b60"/><path id="b62" stroke-linecap="butt" d="M112.5,658.5 L112.5,599.5"/><use stroke="#999" stroke-opacity=".059" xlink:href="#b62"/><path id="b63" stroke-linecap="butt" d="M112.5,599.5 L203.5,599.5"/><use xlink:href="#b63"/><path id="b64" stroke-linecap="butt" d="M203.5,599.5 L203.5,658.5"/><use stroke="#999" stroke-opacity=".059" xlink:href="#b64"/><path id="b65" stroke-linecap="butt" d="M203.5,658.5 L112.5,658.5"/><use stroke="#999" stroke-opacity=".059" xlink:href="#b65"/><path id="b67" stroke-linecap="butt" d="M113.5,657.5 L113.5,600.5"/><use stroke="#999" stroke-opacity=".02" xlink:href="#b67"/><path id="b68" stroke-linecap="butt" d="M113.5,600.5 L202.5,600.5"/><use xlink:href="#b68"/><path id="b69" stroke-linecap="butt" d="M202.5,600.5 L202.5,657.5"/><use stroke="#999" stroke-opacity=".02" xlink:href="#b69"/><path id="b70" stroke-linecap="butt" d="M202.5,657.5 L113.5,657.5"/><use stroke="#999" stroke-opacity=".02" xlink:href="#b70"/><path id="b71" stroke-linecap="butt" d="M119.5,587.5 L109.5,597.5 L206.5,597.5 L216.5,587.5 L119.5,587.5 Z"/><use fill="#dde0e5" xlink:href="#b71"/><rect id="b72" width="102" height="22" x="117" y="566"/><use xlink:href="#b72"/><text id="b73" style="font-family:'Arial';font-size:16px" x="121" y="583">569,743 Bytes</text><use fill="#999" xlink:href="#b73"/><path id="b74" stroke-linecap="butt" d="M329.5,660.5 L329.5,264.5 L339.5,254.5 L339.5,650.5 L329.5,660.5 Z"/><use fill="#64676a" stroke="#64676a" xlink:href="#b74"/><rect id="b76" width="96" height="397" x="233" y="264"/><use fill="url(#b75)" xlink:href="#b76"/><path id="b78" stroke-linecap="butt" d="M233.5,660.5 L233.5,264.5"/><use stroke="#999" stroke-opacity=".278" xlink:href="#b78"/><path id="b79" stroke-linecap="butt" d="M233.5,264.5 L328.5,264.5"/><use xlink:href="#b79"/><path id="b80" stroke-linecap="butt" d="M328.5,264.5 L328.5,660.5"/><use stroke="#999" stroke-opacity=".278" xlink:href="#b80"/><path id="b81" stroke-linecap="butt" d="M328.5,660.5 L233.5,660.5"/><use stroke="#999" stroke-opacity=".278" xlink:href="#b81"/><path id="b83" stroke-linecap="butt" d="M234.5,659.5 L234.5,265.5"/><use stroke="#999" stroke-opacity=".153" xlink:href="#b83"/><path id="b84" stroke-linecap="butt" d="M234.5,265.5 L327.5,265.5"/><use xlink:href="#b84"/><path id="b85" stroke-linecap="butt" d="M327.5,265.5 L327.5,659.5"/><use stroke="#999" stroke-opacity=".153" xlink:href="#b85"/><path id="b86" stroke-linecap="butt" d="M327.5,659.5 L234.5,659.5"/><use stroke="#999" stroke-opacity=".153" xlink:href="#b86"/><path id="b88" stroke-linecap="butt" d="M235.5,658.5 L235.5,266.5"/><use stroke="#999" stroke-opacity=".059" xlink:href="#b88"/><path id="b89" stroke-linecap="butt" d="M235.5,266.5 L326.5,266.5"/><use xlink:href="#b89"/><path id="b90" stroke-linecap="butt" d="M326.5,266.5 L326.5,658.5"/><use stroke="#999" stroke-opacity=".059" xlink:href="#b90"/><path id="b91" stroke-linecap="butt" d="M326.5,658.5 L235.5,658.5"/><use stroke="#999" stroke-opacity=".059" xlink:href="#b91"/><path id="b93" stroke-linecap="butt" d="M236.5,657.5 L236.5,267.5"/><use stroke="#999" stroke-opacity=".02" xlink:href="#b93"/><path id="b94" stroke-linecap="butt" d="M236.5,267.5 L325.5,267.5"/><use xlink:href="#b94"/><path id="b95" stroke-linecap="butt" d="M325.5,267.5 L325.5,657.5"/><use stroke="#999" stroke-opacity=".02" xlink:href="#b95"/><path id="b96" stroke-linecap="butt" d="M325.5,657.5 L236.5,657.5"/><use stroke="#999" stroke-opacity=".02" xlink:href="#b96"/><path id="b97" stroke-linecap="butt" d="M242.5,254.5 L232.5,264.5 L329.5,264.5 L339.5,254.5 L242.5,254.5 Z"/><use fill="#dde0e5" xlink:href="#b97"/><rect id="b98" width="111" height="22" x="235" y="233"/><use xlink:href="#b98"/><text id="b99" style="font-family:'Arial';font-size:16px" x="239" y="250">3,518,156 Bytes</text><use fill="#999" xlink:href="#b99"/><path id="b100" stroke-linecap="butt" d="M452.5,660.5 L452.5,171.5 L462.5,161.5 L462.5,650.5 L452.5,660.5 Z"/><use fill="#64676a" stroke="#64676a" xlink:href="#b100"/><rect id="b102" width="96" height="490" x="356" y="171"/><use fill="url(#b101)" xlink:href="#b102"/><path id="b104" stroke-linecap="butt" d="M356.5,660.5 L356.5,171.5"/><use stroke="#999" stroke-opacity=".278" xlink:href="#b104"/><path id="b105" stroke-linecap="butt" d="M356.5,171.5 L451.5,171.5"/><use xlink:href="#b105"/><path id="b106" stroke-linecap="butt" d="M451.5,171.5 L451.5,660.5"/><use stroke="#999" stroke-opacity=".278" xlink:href="#b106"/><path id="b107" stroke-linecap="butt" d="M451.5,660.5 L356.5,660.5"/><use stroke="#999" stroke-opacity=".278" xlink:href="#b107"/><path id="b109" stroke-linecap="butt" d="M357.5,659.5 L357.5,172.5"/><use stroke="#999" stroke-opacity=".153" xlink:href="#b109"/><path id="b110" stroke-linecap="butt" d="M357.5,172.5 L450.5,172.5"/><use xlink:href="#b110"/><path id="b111" stroke-linecap="butt" d="M450.5,172.5 L450.5,659.5"/><use stroke="#999" stroke-opacity=".153" xlink:href="#b111"/><path id="b112" stroke-linecap="butt" d="M450.5,659.5 L357.5,659.5"/><use stroke="#999" stroke-opacity=".153" xlink:href="#b112"/><path id="b114" stroke-linecap="butt" d="M358.5,658.5 L358.5,173.5"/><use stroke="#999" stroke-opacity=".059" xlink:href="#b114"/><path id="b115" stroke-linecap="butt" d="M358.5,173.5 L449.5,173.5"/><use xlink:href="#b115"/><path id="b116" stroke-linecap="butt" d="M449.5,173.5 L449.5,658.5"/><use stroke="#999" stroke-opacity=".059" xlink:href="#b116"/><path id="b117" stroke-linecap="butt" d="M449.5,658.5 L358.5,658.5"/><use stroke="#999" stroke-opacity=".059" xlink:href="#b117"/><path id="b119" stroke-linecap="butt" d="M359.5,657.5 L359.5,174.5"/><use stroke="#999" stroke-opacity=".02" xlink:href="#b119"/><path id="b120" stroke-linecap="butt" d="M359.5,174.5 L448.5,174.5"/><use xlink:href="#b120"/><path id="b121" stroke-linecap="butt" d="M448.5,174.5 L448.5,657.5"/><use stroke="#999" stroke-opacity=".02" xlink:href="#b121"/><path id="b122" stroke-linecap="butt" d="M448.5,657.5 L359.5,657.5"/><use stroke="#999" stroke-opacity=".02" xlink:href="#b122"/><path id="b123" stroke-linecap="butt" d="M365.5,161.5 L355.5,171.5 L452.5,171.5 L462.5,161.5 L365.5,161.5 Z"/><use fill="#dde0e5" xlink:href="#b123"/><rect id="b124" width="111" height="22" x="358" y="140"/><use xlink:href="#b124"/><text id="b125" style="font-family:'Arial';font-size:16px" x="362" y="157">4,341,000 Bytes</text><use fill="#999" xlink:href="#b125"/><path id="b126" stroke-linecap="butt" d="M575.5,660.5 L575.5,-0.5 L585.5,-10.5 L585.5,650.5 L575.5,660.5 Z"/><use fill="#64676a" stroke="#64676a" xlink:href="#b126"/><rect id="b128" width="96" height="662" x="479" y="-1"/><use fill="url(#b127)" xlink:href="#b128"/><path id="b130" stroke-linecap="butt" d="M479.5,660.5 L479.5,-0.5"/><use stroke="#999" stroke-opacity=".278" xlink:href="#b130"/><path id="b131" stroke-linecap="butt" d="M479.5,-0.5 L574.5,-0.5"/><use xlink:href="#b131"/><path id="b132" stroke-linecap="butt" d="M574.5,-0.5 L574.5,660.5"/><use stroke="#999" stroke-opacity=".278" xlink:href="#b132"/><path id="b133" stroke-linecap="butt" d="M574.5,660.5 L479.5,660.5"/><use stroke="#999" stroke-opacity=".278" xlink:href="#b133"/><path id="b135" stroke-linecap="butt" d="M480.5,659.5 L480.5,0.5"/><use stroke="#999" stroke-opacity=".153" xlink:href="#b135"/><path id="b136" stroke-linecap="butt" d="M480.5,0.5 L573.5,0.5"/><use xlink:href="#b136"/><path id="b137" stroke-linecap="butt" d="M573.5,0.5 L573.5,659.5"/><use stroke="#999" stroke-opacity=".153" xlink:href="#b137"/><path id="b138" stroke-linecap="butt" d="M573.5,659.5 L480.5,659.5"/><use stroke="#999" stroke-opacity=".153" xlink:href="#b138"/><path id="b140" stroke-linecap="butt" d="M481.5,658.5 L481.5,1.5"/><use stroke="#999" stroke-opacity=".059" xlink:href="#b140"/><path id="b141" stroke-linecap="butt" d="M481.5,1.5 L572.5,1.5"/><use xlink:href="#b141"/><path id="b142" stroke-linecap="butt" d="M572.5,1.5 L572.5,658.5"/><use stroke="#999" stroke-opacity=".059" xlink:href="#b142"/><path id="b143" stroke-linecap="butt" d="M572.5,658.5 L481.5,658.5"/><use stroke="#999" stroke-opacity=".059" xlink:href="#b143"/><path id="b145" stroke-linecap="butt" d="M482.5,657.5 L482.5,2.5"/><use stroke="#999" stroke-opacity=".02" xlink:href="#b145"/><path id="b146" stroke-linecap="butt" d="M482.5,2.5 L571.5,2.5"/><use xlink:href="#b146"/><path id="b147" stroke-linecap="butt" d="M571.5,2.5 L571.5,657.5"/><use stroke="#999" stroke-opacity=".02" xlink:href="#b147"/><path id="b148" stroke-linecap="butt" d="M571.5,657.5 L482.5,657.5"/><use stroke="#999" stroke-opacity=".02" xlink:href="#b148"/><path id="b149" stroke-linecap="butt" d="M488.5,-10.5 L478.5,-0.5 L575.5,-0.5 L585.5,-10.5 L488.5,-10.5 Z"/><use fill="#dde0e5" xlink:href="#b149"/><text id="b150" style="font-family:'Arial';font-size:16px" x="476" y="-17">117,021,480 Bytes</text><use fill="#999" xlink:href="#b150"/><path id="b151" stroke-linecap="butt" d="M697.5,660.5 L697.5,390.5 L707.5,380.5 L707.5,650.5 L697.5,660.5 Z"/><use fill="#64676a" stroke="#64676a" xlink:href="#b151"/><rect id="b153" width="96" height="271" x="601" y="390"/><use fill="url(#b152)" xlink:href="#b153"/><path id="b155" stroke-linecap="butt" d="M601.5,660.5 L601.5,390.5"/><use stroke="#999" stroke-opacity=".278" xlink:href="#b155"/><path id="b156" stroke-linecap="butt" d="M601.5,390.5 L696.5,390.5"/><use xlink:href="#b156"/><path id="b157" stroke-linecap="butt" d="M696.5,390.5 L696.5,660.5"/><use stroke="#999" stroke-opacity=".278" xlink:href="#b157"/><path id="b158" stroke-linecap="butt" d="M696.5,660.5 L601.5,660.5"/><use stroke="#999" stroke-opacity=".278" xlink:href="#b158"/><path id="b160" stroke-linecap="butt" d="M602.5,659.5 L602.5,391.5"/><use stroke="#999" stroke-opacity=".153" xlink:href="#b160"/><path id="b161" stroke-linecap="butt" d="M602.5,391.5 L695.5,391.5"/><use xlink:href="#b161"/><path id="b162" stroke-linecap="butt" d="M695.5,391.5 L695.5,659.5"/><use stroke="#999" stroke-opacity=".153" xlink:href="#b162"/><path id="b163" stroke-linecap="butt" d="M695.5,659.5 L602.5,659.5"/><use stroke="#999" stroke-opacity=".153" xlink:href="#b163"/><path id="b165" stroke-linecap="butt" d="M603.5,658.5 L603.5,392.5"/><use stroke="#999" stroke-opacity=".059" xlink:href="#b165"/><path id="b166" stroke-linecap="butt" d="M603.5,392.5 L694.5,392.5"/><use xlink:href="#b166"/><path id="b167" stroke-linecap="butt" d="M694.5,392.5 L694.5,658.5"/><use stroke="#999" stroke-opacity=".059" xlink:href="#b167"/><path id="b168" stroke-linecap="butt" d="M694.5,658.5 L603.5,658.5"/><use stroke="#999" stroke-opacity=".059" xlink:href="#b168"/><path id="b170" stroke-linecap="butt" d="M604.5,657.5 L604.5,393.5"/><use stroke="#999" stroke-opacity=".02" xlink:href="#b170"/><path id="b171" stroke-linecap="butt" d="M604.5,393.5 L693.5,393.5"/><use xlink:href="#b171"/><path id="b172" stroke-linecap="butt" d="M693.5,393.5 L693.5,657.5"/><use stroke="#999" stroke-opacity=".02" xlink:href="#b172"/><path id="b173" stroke-linecap="butt" d="M693.5,657.5 L604.5,657.5"/><use stroke="#999" stroke-opacity=".02" xlink:href="#b173"/><path id="b174" stroke-linecap="butt" d="M610.5,380.5 L600.5,390.5 L697.5,390.5 L707.5,380.5 L610.5,380.5 Z"/><use fill="#dde0e5" xlink:href="#b174"/><rect id="b175" width="111" height="22" x="603" y="359"/><use xlink:href="#b175"/><text id="b176" style="font-family:'Arial';font-size:16px" x="607" y="376">2,398,442 Bytes</text><use fill="#999" xlink:href="#b176"/><path id="b177" stroke-linecap="butt" d="M820.5,660.5 L820.5,-0.5 L830.5,-10.5 L830.5,650.5 L820.5,660.5 Z"/><use fill="#64676a" stroke="#64676a" xlink:href="#b177"/><rect id="b179" width="96" height="662" x="724" y="-1"/><use fill="url(#b178)" xlink:href="#b179"/><path id="b181" stroke-linecap="butt" d="M724.5,660.5 L724.5,-0.5"/><use stroke="#999" stroke-opacity=".278" xlink:href="#b181"/><path id="b182" stroke-linecap="butt" d="M724.5,-0.5 L819.5,-0.5"/><use xlink:href="#b182"/><path id="b183" stroke-linecap="butt" d="M819.5,-0.5 L819.5,660.5"/><use stroke="#999" stroke-opacity=".278" xlink:href="#b183"/><path id="b184" stroke-linecap="butt" d="M819.5,660.5 L724.5,660.5"/><use stroke="#999" stroke-opacity=".278" xlink:href="#b184"/><path id="b186" stroke-linecap="butt" d="M725.5,659.5 L725.5,0.5"/><use stroke="#999" stroke-opacity=".153" xlink:href="#b186"/><path id="b187" stroke-linecap="butt" d="M725.5,0.5 L818.5,0.5"/><use xlink:href="#b187"/><path id="b188" stroke-linecap="butt" d="M818.5,0.5 L818.5,659.5"/><use stroke="#999" stroke-opacity=".153" xlink:href="#b188"/><path id="b189" stroke-linecap="butt" d="M818.5,659.5 L725.5,659.5"/><use stroke="#999" stroke-opacity=".153" xlink:href="#b189"/><path id="b191" stroke-linecap="butt" d="M726.5,658.5 L726.5,1.5"/><use stroke="#999" stroke-opacity=".059" xlink:href="#b191"/><path id="b192" stroke-linecap="butt" d="M726.5,1.5 L817.5,1.5"/><use xlink:href="#b192"/><path id="b193" stroke-linecap="butt" d="M817.5,1.5 L817.5,658.5"/><use stroke="#999" stroke-opacity=".059" xlink:href="#b193"/><path id="b194" stroke-linecap="butt" d="M817.5,658.5 L726.5,658.5"/><use stroke="#999" stroke-opacity=".059" xlink:href="#b194"/><path id="b196" stroke-linecap="butt" d="M727.5,657.5 L727.5,2.5"/><use stroke="#999" stroke-opacity=".02" xlink:href="#b196"/><path id="b197" stroke-linecap="butt" d="M727.5,2.5 L816.5,2.5"/><use xlink:href="#b197"/><path id="b198" stroke-linecap="butt" d="M816.5,2.5 L816.5,657.5"/><use stroke="#999" stroke-opacity=".02" xlink:href="#b198"/><path id="b199" stroke-linecap="butt" d="M816.5,657.5 L727.5,657.5"/><use stroke="#999" stroke-opacity=".02" xlink:href="#b199"/><path id="b200" stroke-linecap="butt" d="M733.5,-10.5 L723.5,-0.5 L820.5,-0.5 L830.5,-10.5 L733.5,-10.5 Z"/><use fill="#dde0e5" xlink:href="#b200"/><text id="b201" style="font-family:'Arial';font-size:16px" x="721" y="-17">226,943,056 Bytes</text><use fill="#999" xlink:href="#b201"/><path id="b202" stroke-linecap="butt" d="M943.5,660.5 L943.5,410.5 L953.5,400.5 L953.5,650.5 L943.5,660.5 Z"/><use fill="#64676a" stroke="#64676a" xlink:href="#b202"/><rect id="b204" width="96" height="251" x="847" y="410"/><use fill="url(#b203)" xlink:href="#b204"/><path id="b206" stroke-linecap="butt" d="M847.5,660.5 L847.5,410.5"/><use stroke="#999" stroke-opacity=".278" xlink:href="#b206"/><path id="b207" stroke-linecap="butt" d="M847.5,410.5 L942.5,410.5"/><use xlink:href="#b207"/><path id="b208" stroke-linecap="butt" d="M942.5,410.5 L942.5,660.5"/><use stroke="#999" stroke-opacity=".278" xlink:href="#b208"/><path id="b209" stroke-linecap="butt" d="M942.5,660.5 L847.5,660.5"/><use stroke="#999" stroke-opacity=".278" xlink:href="#b209"/><path id="b211" stroke-linecap="butt" d="M848.5,659.5 L848.5,411.5"/><use stroke="#999" stroke-opacity=".153" xlink:href="#b211"/><path id="b212" stroke-linecap="butt" d="M848.5,411.5 L941.5,411.5"/><use xlink:href="#b212"/><path id="b213" stroke-linecap="butt" d="M941.5,411.5 L941.5,659.5"/><use stroke="#999" stroke-opacity=".153" xlink:href="#b213"/><path id="b214" stroke-linecap="butt" d="M941.5,659.5 L848.5,659.5"/><use stroke="#999" stroke-opacity=".153" xlink:href="#b214"/><path id="b216" stroke-linecap="butt" d="M849.5,658.5 L849.5,412.5"/><use stroke="#999" stroke-opacity=".059" xlink:href="#b216"/><path id="b217" stroke-linecap="butt" d="M849.5,412.5 L940.5,412.5"/><use xlink:href="#b217"/><path id="b218" stroke-linecap="butt" d="M940.5,412.5 L940.5,658.5"/><use stroke="#999" stroke-opacity=".059" xlink:href="#b218"/><path id="b219" stroke-linecap="butt" d="M940.5,658.5 L849.5,658.5"/><use stroke="#999" stroke-opacity=".059" xlink:href="#b219"/><path id="b221" stroke-linecap="butt" d="M850.5,657.5 L850.5,413.5"/><use stroke="#999" stroke-opacity=".02" xlink:href="#b221"/><path id="b222" stroke-linecap="butt" d="M850.5,413.5 L939.5,413.5"/><use xlink:href="#b222"/><path id="b223" stroke-linecap="butt" d="M939.5,413.5 L939.5,657.5"/><use stroke="#999" stroke-opacity=".02" xlink:href="#b223"/><path id="b224" stroke-linecap="butt" d="M939.5,657.5 L850.5,657.5"/><use stroke="#999" stroke-opacity=".02" xlink:href="#b224"/><path id="b225" stroke-linecap="butt" d="M856.5,400.5 L846.5,410.5 L943.5,410.5 L953.5,400.5 L856.5,400.5 Z"/><use fill="#dde0e5" xlink:href="#b225"/><rect id="b226" width="111" height="22" x="849" y="379"/><use xlink:href="#b226"/><text id="b227" style="font-family:'Arial';font-size:16px" x="853" y="396">2,227,612 Bytes</text><use fill="#999" xlink:href="#b227"/><path id="b228" stroke-linecap="butt" d="M1066.5,660.5 L1066.5,126.5 L1076.5,116.5 L1076.5,650.5 L1066.5,660.5 Z"/><use fill="#64676a" stroke="#64676a" xlink:href="#b228"/><rect id="b230" width="96" height="535" x="970" y="126"/><use fill="url(#b229)" xlink:href="#b230"/><path id="b232" stroke-linecap="butt" d="M970.5,660.5 L970.5,126.5"/><use stroke="#999" stroke-opacity=".278" xlink:href="#b232"/><path id="b233" stroke-linecap="butt" d="M970.5,126.5 L1065.5,126.5"/><use xlink:href="#b233"/><path id="b234" stroke-linecap="butt" d="M1065.5,126.5 L1065.5,660.5"/><use stroke="#999" stroke-opacity=".278" xlink:href="#b234"/><path id="b235" stroke-linecap="butt" d="M1065.5,660.5 L970.5,660.5"/><use stroke="#999" stroke-opacity=".278" xlink:href="#b235"/><path id="b237" stroke-linecap="butt" d="M971.5,659.5 L971.5,127.5"/><use stroke="#999" stroke-opacity=".153" xlink:href="#b237"/><path id="b238" stroke-linecap="butt" d="M971.5,127.5 L1064.5,127.5"/><use xlink:href="#b238"/><path id="b239" stroke-linecap="butt" d="M1064.5,127.5 L1064.5,659.5"/><use stroke="#999" stroke-opacity=".153" xlink:href="#b239"/><path id="b240" stroke-linecap="butt" d="M1064.5,659.5 L971.5,659.5"/><use stroke="#999" stroke-opacity=".153" xlink:href="#b240"/><path id="b242" stroke-linecap="butt" d="M972.5,658.5 L972.5,128.5"/><use stroke="#999" stroke-opacity=".059" xlink:href="#b242"/><path id="b243" stroke-linecap="butt" d="M972.5,128.5 L1063.5,128.5"/><use xlink:href="#b243"/><path id="b244" stroke-linecap="butt" d="M1063.5,128.5 L1063.5,658.5"/><use stroke="#999" stroke-opacity=".059" xlink:href="#b244"/><path id="b245" stroke-linecap="butt" d="M1063.5,658.5 L972.5,658.5"/><use stroke="#999" stroke-opacity=".059" xlink:href="#b245"/><path id="b247" stroke-linecap="butt" d="M973.5,657.5 L973.5,129.5"/><use stroke="#999" stroke-opacity=".02" xlink:href="#b247"/><path id="b248" stroke-linecap="butt" d="M973.5,129.5 L1062.5,129.5"/><use xlink:href="#b248"/><path id="b249" stroke-linecap="butt" d="M1062.5,129.5 L1062.5,657.5"/><use stroke="#999" stroke-opacity=".02" xlink:href="#b249"/><path id="b250" stroke-linecap="butt" d="M1062.5,657.5 L973.5,657.5"/><use stroke="#999" stroke-opacity=".02" xlink:href="#b250"/><path id="b251" stroke-linecap="butt" d="M979.5,116.5 L969.5,126.5 L1066.5,126.5 L1076.5,116.5 L979.5,116.5 Z"/><use fill="#dde0e5" xlink:href="#b251"/><rect id="b252" width="111" height="22" x="972" y="95"/><use xlink:href="#b252"/><text id="b253" style="font-family:'Arial';font-size:16px" x="976" y="112">4,746,825 Bytes</text><use fill="#999" xlink:href="#b253"/><line id="b254" x1="1089.5" x2="1089.5" y1="651.5" y2="87.5"/><use stroke="#999" xlink:href="#b254"/><line id="b255" x1="97.5" x2="97.5" y1="661.5" y2="97.5"/><use stroke="#999" xlink:href="#b255"/><line id="b256" x1="97.5" x2="1079.5" y1="661.5" y2="661.5"/><use stroke="#999" xlink:href="#b256"/><line id="b257" x1="1079.5" x2="1089.5" y1="661.5" y2="651.5"/><use stroke="#999" xlink:href="#b257"/><line id="b258" x1="97.5" x2="97.5" y1="661.5" y2="97.5" stroke-width="2"/><use stroke="#999" xlink:href="#b258"/><line id="b259" x1="93.5" x2="96.5" y1="661.5" y2="661.5"/><use stroke="#999" xlink:href="#b259"/><line id="b260" x1="93.5" x2="96.5" y1="605.5" y2="605.5"/><use stroke="#999" xlink:href="#b260"/><line id="b261" x1="93.5" x2="96.5" y1="548.5" y2="548.5"/><use stroke="#999" xlink:href="#b261"/><line id="b262" x1="93.5" x2="96.5" y1="492.5" y2="492.5"/><use stroke="#999" xlink:href="#b262"/><line id="b263" x1="93.5" x2="96.5" y1="435.5" y2="435.5"/><use stroke="#999" xlink:href="#b263"/><line id="b264" x1="93.5" x2="96.5" y1="379.5" y2="379.5"/><use stroke="#999" xlink:href="#b264"/><line id="b265" x1="93.5" x2="96.5" y1="323.5" y2="323.5"/><use stroke="#999" xlink:href="#b265"/><line id="b266" x1="93.5" x2="96.5" y1="266.5" y2="266.5"/><use stroke="#999" xlink:href="#b266"/><line id="b267" x1="93.5" x2="96.5" y1="210.5" y2="210.5"/><use stroke="#999" xlink:href="#b267"/><line id="b268" x1="93.5" x2="96.5" y1="153.5" y2="153.5"/><use stroke="#999" xlink:href="#b268"/><line id="b269" x1="93.5" x2="96.5" y1="97.5" y2="97.5"/><use stroke="#999" xlink:href="#b269"/><text id="b270" style="font-family:'Arial';font-size:16px" x="81" y="667">0</text><use fill="#999" xlink:href="#b270"/><text id="b271" style="font-family:'Arial';font-size:16px" x="36" y="611">500000</text><use fill="#999" xlink:href="#b271"/><text id="b272" style="font-family:'Arial';font-size:16px" x="27" y="554">1000000</text><use fill="#999" xlink:href="#b272"/><text id="b273" style="font-family:'Arial';font-size:16px" x="27" y="498">1500000</text><use fill="#999" xlink:href="#b273"/><text id="b274" style="font-family:'Arial';font-size:16px" x="27" y="441">2000000</text><use fill="#999" xlink:href="#b274"/><text id="b275" style="font-family:'Arial';font-size:16px" x="27" y="385">2500000</text><use fill="#999" xlink:href="#b275"/><text id="b276" style="font-family:'Arial';font-size:16px" x="27" y="329">3000000</text><use fill="#999" xlink:href="#b276"/><text id="b277" style="font-family:'Arial';font-size:16px" x="27" y="272">3500000</text><use fill="#999" xlink:href="#b277"/><text id="b278" style="font-family:'Arial';font-size:16px" x="27" y="216">4000000</text><use fill="#999" xlink:href="#b278"/><text id="b279" style="font-family:'Arial';font-size:16px" x="27" y="159">4500000</text><use fill="#999" xlink:href="#b279"/><text id="b280" style="font-family:'Arial';font-size:16px" x="27" y="103">5000000</text><use fill="#999" xlink:href="#b280"/><defs><symbol id="g281" preserveAspectRatio="none" viewBox="0 0 45 19"><g fill="none" fill-rule="evenodd" stroke-linecap="square" font-family="Arial" font-size="11"><text id="b282" style="font-family:'Arial';font-size:16px;font-weight:700" x="5" y="15">RAM</text><use fill="#999" xlink:href="#b282"/></g></symbol></defs><use width="45" height="19" x="1" y="401" transform="rotate(-90,1,401)" xlink:href="#g281"/><line id="b283" x1="97.5" x2="1079.5" y1="661.5" y2="661.5" stroke-width="2"/><use stroke="#999" xlink:href="#b283"/><line id="b284" x1="97.5" x2="97.5" y1="665.5" y2="662.5"/><use stroke="#999" xlink:href="#b284"/><line id="b285" x1="220.5" x2="220.5" y1="665.5" y2="662.5"/><use stroke="#999" xlink:href="#b285"/><line id="b286" x1="343.5" x2="343.5" y1="665.5" y2="662.5"/><use stroke="#999" xlink:href="#b286"/><line id="b287" x1="465.5" x2="465.5" y1="665.5" y2="662.5"/><use stroke="#999" xlink:href="#b287"/><line id="b288" x1="588.5" x2="588.5" y1="665.5" y2="662.5"/><use stroke="#999" xlink:href="#b288"/><line id="b289" x1="711.5" x2="711.5" y1="665.5" y2="662.5"/><use stroke="#999" xlink:href="#b289"/><line id="b290" x1="834.5" x2="834.5" y1="665.5" y2="662.5"/><use stroke="#999" xlink:href="#b290"/><line id="b291" x1="956.5" x2="956.5" y1="665.5" y2="662.5"/><use stroke="#999" xlink:href="#b291"/><line id="b292" x1="1079.5" x2="1079.5" y1="665.5" y2="662.5"/><use stroke="#999" xlink:href="#b292"/><text id="b293" style="font-family:'Arial';font-size:16px" x="119" y="679">FlexSearch</text><use fill="#999" xlink:href="#b293"/><text id="b294" style="font-family:'Arial';font-size:16px" x="242" y="679">BulkSearch</text><use fill="#999" xlink:href="#b294"/><text id="b295" style="font-family:'Arial';font-size:16px" x="369" y="679">Elasticlunr</text><use fill="#999" xlink:href="#b295"/><text id="b296" style="font-family:'Arial';font-size:16px" x="513" y="679">Lunr</text><use fill="#999" xlink:href="#b296"/><text id="b297" style="font-family:'Arial';font-size:16px" x="629" y="679">Wade</text><use fill="#999" xlink:href="#b297"/><text id="b298" style="font-family:'Arial';font-size:16px" x="740" y="679">JsSearch</text><use fill="#999" xlink:href="#b298"/><text id="b299" style="font-family:'Arial';font-size:16px" x="882" y="679">JSii</text><use fill="#999" xlink:href="#b299"/><text id="b300" style="font-family:'Arial';font-size:16px" x="999" y="679">bm25</text><use fill="#999" xlink:href="#b300"/><text id="b301" style="font-family:'Arial';font-size:21px;font-weight:700" x="310" y="714">Memory Consumption of Search Engines (lower ist better)</text><use fill="#999" xlink:href="#b301"/><text id="b302" style="font-family:'Arial';font-size:16px" x="444" y="742">https://github.com/nextapps-de/flexsearch/</text><use fill="#999" xlink:href="#b302"/></g></svg>